<svg width="600" height="600" viewBox="0 0 600 600" fill="none" xmlns="http://www.w3.org/2000/svg">
<g id="board">
<rect id="background" x="0.5" y="0.5" width="599" height="599" rx="63.5" fill="#B5C0C3" stroke="#808080"/>
<g id="lines">
<g id="diagonals">
<rect id="diagonal3" x="57" y="64.0711" width="10" height="240" transform="rotate(-45 57 64.0711)" fill="#F2F1F1"/>
<rect id="diagonal2" x="538.706" y="55" width="10" height="240" transform="rotate(45 538.706 55)" fill="#F2F1F1"/>
<rect id="diagonal1" x="370" y="377.071" width="10" height="240" transform="rotate(-45 370 377.071)" fill="#F2F1F1"/>
<rect id="diagonal0" x="216.706" y="374" width="10" height="240" transform="rotate(45 216.706 374)" fill="#F2F1F1"/>
</g>
<g id="horizontals">
<g id="horizontal6">
<g id="joinRect">
<rect width="10" height="390" transform="translate(105.95 74.4) rotate(-90)" fill="white"/>
<rect id="joinRect_2" x="105.95" y="74.4" width="10" height="390" transform="rotate(-90 105.95 74.4)" fill="#F2F1F1"/>
</g>
<g id="join">
<path id="Intersect" fill-rule="evenodd" clip-rule="evenodd" d="M87.5787 83.25C92.1645 77.837 99.012 74.4009 106.662 74.4009C106.708 74.4009 106.754 74.401 106.8 74.4013V64.4005C106.754 64.4008 106.708 64.4009 106.662 64.4009C98.8708 64.4009 91.912 60.8368 87.3271 55.25H87.3V55.2872C90.0521 59.3037 91.6621 64.1643 91.6621 69.4009C91.6621 74.523 90.1217 79.2854 87.4788 83.25H87.5787Z" fill="#F2F1F1"/>
</g>
<g id="join_2">
<path id="Intersect_2" fill-rule="evenodd" clip-rule="evenodd" d="M279.721 55.55C275.135 60.963 268.288 64.3991 260.638 64.3991C260.592 64.3991 260.546 64.399 260.5 64.3987V74.3995C260.546 74.3992 260.592 74.3991 260.638 74.3991C268.429 74.3991 275.388 77.9632 279.973 83.55H280V83.5128C277.248 79.4963 275.638 74.6357 275.638 69.3991C275.638 64.277 277.178 59.5146 279.821 55.55L279.721 55.55Z" fill="#F2F1F1"/>
</g>
<g id="join_3">
<path id="Intersect_3" fill-rule="evenodd" clip-rule="evenodd" d="M318.979 55.55C323.565 60.963 330.412 64.3991 338.062 64.3991C338.108 64.3991 338.154 64.399 338.2 64.3987V74.3995C338.154 74.3992 338.108 74.3991 338.062 74.3991C330.271 74.3991 323.312 77.9632 318.727 83.55H318.7V83.5128C321.452 79.4963 323.062 74.6357 323.062 69.3991C323.062 64.277 321.522 59.5146 318.879 55.55L318.979 55.55Z" fill="#F2F1F1"/>
</g>
<g id="join_4">
<path id="Intersect_4" fill-rule="evenodd" clip-rule="evenodd" d="M512.021 83.25C507.435 77.837 500.588 74.4009 492.938 74.4009C492.892 74.4009 492.846 74.401 492.8 74.4013V64.4005C492.846 64.4008 492.892 64.4009 492.938 64.4009C500.729 64.4009 507.688 60.8368 512.273 55.25H512.3V55.2872C509.548 59.3037 507.938 64.1643 507.938 69.4009C507.938 74.523 509.478 79.2854 512.121 83.25H512.021Z" fill="#F2F1F1"/>
</g>
</g>
<g id="horizontal5">
<g id="joinRect_3">
<rect width="10" height="250" transform="translate(167 150.95) rotate(-90)" fill="white"/>
<rect id="joinRect_4" x="167" y="150.95" width="10" height="250" transform="rotate(-90 167 150.95)" fill="#F2F1F1"/>
</g>
<g id="join_5">
<path id="Intersect_5" fill-rule="evenodd" clip-rule="evenodd" d="M319.629 159.8C324.215 154.387 331.062 150.951 338.712 150.951C338.758 150.951 338.804 150.951 338.85 150.951V140.951C338.804 140.951 338.758 140.951 338.712 140.951C330.921 140.951 323.962 137.387 319.377 131.8H319.35V131.837C322.102 135.854 323.712 140.714 323.712 145.951C323.712 151.073 322.172 155.835 319.529 159.8H319.629Z" fill="#F2F1F1"/>
</g>
<g id="join_6">
<path id="Intersect_6" fill-rule="evenodd" clip-rule="evenodd" d="M280.371 159.8C275.785 154.387 268.938 150.951 261.288 150.951C261.242 150.951 261.196 150.951 261.15 150.951V140.951C261.196 140.951 261.242 140.951 261.288 140.951C269.079 140.951 276.038 137.387 280.623 131.8H280.65V131.837C277.898 135.854 276.288 140.714 276.288 145.951C276.288 151.073 277.828 155.835 280.471 159.8H280.371Z" fill="#F2F1F1"/>
</g>
<g id="join_7">
<path id="Intersect_7" fill-rule="evenodd" clip-rule="evenodd" d="M434.371 132.15C429.785 137.563 422.938 140.999 415.288 140.999C415.242 140.999 415.196 140.999 415.15 140.999V150.999C415.196 150.999 415.242 150.999 415.288 150.999C423.079 150.999 430.038 154.563 434.623 160.15H434.65V160.113C431.898 156.096 430.288 151.236 430.288 145.999C430.288 140.877 431.828 136.115 434.471 132.15H434.371Z" fill="#F2F1F1"/>
</g>
<g id="join_8">
<path id="Intersect_8" fill-rule="evenodd" clip-rule="evenodd" d="M165.779 132.1C170.365 137.513 177.212 140.949 184.862 140.949C184.908 140.949 184.954 140.949 185 140.949V150.949C184.954 150.949 184.908 150.949 184.862 150.949C177.071 150.949 170.112 154.513 165.527 160.1H165.5V160.063C168.252 156.046 169.862 151.186 169.862 145.949C169.862 140.827 168.322 136.065 165.679 132.1H165.779Z" fill="#F2F1F1"/>
</g>
</g>
<g id="horizontal4">
<g id="connection50px">
<path id="connection50px_2" fill-rule="evenodd" clip-rule="evenodd" d="M282.276 238.665C282.114 238.468 281.956 238.268 281.801 238.066C281.954 238.274 282.104 238.485 282.25 238.698L282.276 238.665ZM241.025 238.698C241.172 238.485 241.322 238.274 241.475 238.066C241.32 238.268 241.161 238.468 241 238.665L241.025 238.698ZM241 207.033C241.161 207.23 241.32 207.43 241.475 207.632C240.826 206.748 240.233 205.82 239.703 204.852C240.108 205.592 240.55 206.308 241.025 207L241 207.033ZM282.25 207C282.104 207.213 281.954 207.424 281.801 207.632C281.956 207.43 282.114 207.23 282.276 207.033L282.25 207ZM261.638 217.849C269.719 217.849 276.905 214.015 281.475 208.066C278.434 212.206 276.638 217.318 276.638 222.849C276.638 228.38 278.434 233.492 281.475 237.632C276.905 231.684 269.719 227.849 261.638 227.849C253.557 227.849 246.371 231.684 241.801 237.632C244.842 233.492 246.638 228.38 246.638 222.849C246.638 217.318 244.842 212.206 241.801 208.066C246.371 214.015 253.556 217.849 261.638 217.849Z" fill="#F1EEEE"/>
</g>
<g id="connection50px_3">
<path id="connection50px_4" fill-rule="evenodd" clip-rule="evenodd" d="M359.276 238.665C359.114 238.468 358.956 238.268 358.801 238.066C358.954 238.274 359.104 238.485 359.25 238.698L359.276 238.665ZM318.025 238.698C318.172 238.485 318.322 238.274 318.475 238.066C318.32 238.268 318.161 238.468 318 238.665L318.025 238.698ZM318 207.033C318.161 207.23 318.32 207.43 318.475 207.632C317.826 206.748 317.233 205.82 316.703 204.852C317.108 205.592 317.55 206.308 318.025 207L318 207.033ZM359.25 207C359.104 207.213 358.954 207.424 358.801 207.632C358.956 207.43 359.114 207.23 359.276 207.033L359.25 207ZM338.638 217.849C346.719 217.849 353.905 214.015 358.475 208.066C355.434 212.206 353.638 217.318 353.638 222.849C353.638 228.38 355.434 233.492 358.475 237.632C353.905 231.684 346.719 227.849 338.638 227.849C330.556 227.849 323.371 231.684 318.801 237.632C321.842 233.492 323.638 228.38 323.638 222.849C323.638 217.318 321.842 212.206 318.801 208.066C323.371 214.015 330.556 217.849 338.638 217.849Z" fill="#F1EEEE"/>
</g>
</g>
<g id="horizontal31">
<g id="connection50px_5">
<path id="connection50px_6" fill-rule="evenodd" clip-rule="evenodd" d="M472.174 284.195C472.336 284.392 472.494 284.592 472.649 284.794C472.496 284.586 472.346 284.375 472.2 284.162L472.174 284.195ZM513.424 284.162C513.278 284.375 513.128 284.586 512.975 284.794C513.13 284.592 513.289 284.392 513.45 284.195L513.424 284.162ZM513.45 315.827C513.289 315.63 513.13 315.43 512.975 315.227C513.624 316.112 514.217 317.04 514.747 318.008C514.342 317.268 513.9 316.552 513.424 315.86L513.45 315.827ZM472.2 315.86C472.346 315.647 472.496 315.436 472.649 315.228C472.494 315.43 472.336 315.63 472.174 315.827L472.2 315.86ZM492.812 305.011C484.731 305.011 477.545 308.845 472.975 314.794C476.016 310.654 477.812 305.542 477.812 300.011C477.812 294.48 476.016 289.368 472.975 285.228C477.545 291.176 484.731 295.011 492.812 295.011C500.893 295.011 508.079 291.176 512.649 285.228C509.608 289.368 507.812 294.48 507.812 300.011C507.812 305.542 509.608 310.654 512.649 314.794C508.079 308.845 500.894 305.011 492.812 305.011Z" fill="#F1EEEE"/>
</g>
<g id="connection50px_7">
<path id="connection50px_8" fill-rule="evenodd" clip-rule="evenodd" d="M395 284.335C395.161 284.532 395.32 284.732 395.475 284.934C395.322 284.726 395.172 284.515 395.026 284.302L395 284.335ZM436.25 284.302C436.104 284.515 435.954 284.726 435.801 284.934C435.956 284.732 436.114 284.532 436.276 284.335L436.25 284.302ZM436.276 315.967C436.114 315.77 435.956 315.57 435.801 315.367C436.45 316.252 437.043 317.18 437.573 318.148C437.168 317.408 436.726 316.692 436.25 316L436.276 315.967ZM395.026 316C395.172 315.787 395.322 315.576 395.475 315.368C395.32 315.57 395.161 315.77 395 315.967L395.026 316ZM415.638 305.151C407.557 305.151 400.371 308.985 395.801 314.934C398.842 310.794 400.638 305.682 400.638 300.151C400.638 294.62 398.842 289.508 395.801 285.368C400.371 291.316 407.557 295.151 415.638 295.151C423.719 295.151 430.905 291.316 435.475 285.368C432.434 289.508 430.638 294.62 430.638 300.151C430.638 305.682 432.434 310.794 435.475 314.934C430.905 308.985 423.719 305.151 415.638 305.151Z" fill="#F1EEEE"/>
</g>
</g>
<g id="horizontal30">
<g id="connection50px_9">
<path id="connection50px_10" fill-rule="evenodd" clip-rule="evenodd" d="M127.596 316.165C127.434 315.968 127.276 315.768 127.121 315.566C127.274 315.774 127.424 315.985 127.57 316.198L127.596 316.165ZM86.3455 316.198C86.4922 315.985 86.6421 315.774 86.7951 315.566C86.6397 315.768 86.4814 315.968 86.32 316.165L86.3455 316.198ZM86.32 284.533C86.4814 284.73 86.6398 284.93 86.7952 285.133C86.1457 284.248 85.5531 283.32 85.0226 282.352C85.428 283.092 85.8698 283.808 86.3455 284.5L86.32 284.533ZM127.57 284.5C127.424 284.713 127.274 284.924 127.121 285.132C127.276 284.93 127.434 284.73 127.596 284.533L127.57 284.5ZM106.958 295.349C115.039 295.349 122.225 291.515 126.795 285.566C123.754 289.706 121.958 294.818 121.958 300.349C121.958 305.88 123.754 310.992 126.795 315.132C122.225 309.184 115.039 305.349 106.958 305.349C98.8765 305.349 91.6907 309.184 87.1207 315.132C90.1616 310.992 91.9579 305.88 91.9579 300.349C91.9579 294.818 90.1616 289.706 87.1206 285.566C91.6907 291.515 98.8765 295.349 106.958 295.349Z" fill="#F1EEEE"/>
</g>
<g id="connection50px_11">
<path id="connection50px_12" fill-rule="evenodd" clip-rule="evenodd" d="M205 316.165C204.839 315.968 204.68 315.768 204.525 315.566C204.678 315.774 204.828 315.985 204.975 316.198L205 316.165ZM163.75 316.198C163.896 315.985 164.046 315.774 164.199 315.566C164.044 315.768 163.886 315.968 163.724 316.165L163.75 316.198ZM163.724 284.533C163.886 284.73 164.044 284.93 164.199 285.133C163.55 284.248 162.957 283.32 162.427 282.352C162.832 283.092 163.274 283.808 163.75 284.5L163.724 284.533ZM204.975 284.5C204.828 284.713 204.678 284.924 204.525 285.132C204.68 284.93 204.839 284.73 205 284.533L204.975 284.5ZM184.362 295.349C192.444 295.349 199.629 291.515 204.199 285.566C201.158 289.706 199.362 294.818 199.362 300.349C199.362 305.88 201.158 310.992 204.199 315.132C199.629 309.184 192.443 305.349 184.362 305.349C176.281 305.349 169.095 309.184 164.525 315.132C167.566 310.992 169.362 305.88 169.362 300.349C169.362 294.818 167.566 289.706 164.525 285.566C169.095 291.515 176.281 295.349 184.362 295.349Z" fill="#F1EEEE"/>
</g>
</g>
<g id="horizontal2">
<g id="connection50px_13">
<path id="connection50px_14" fill-rule="evenodd" clip-rule="evenodd" d="M282.276 392.665C282.114 392.468 281.956 392.268 281.801 392.066C281.954 392.274 282.104 392.485 282.25 392.698L282.276 392.665ZM241.025 392.698C241.172 392.485 241.322 392.274 241.475 392.066C241.32 392.268 241.161 392.468 241 392.665L241.025 392.698ZM241 361.033C241.161 361.23 241.32 361.43 241.475 361.633C240.826 360.748 240.233 359.82 239.703 358.852C240.108 359.592 240.55 360.308 241.025 361L241 361.033ZM282.25 361C282.104 361.213 281.954 361.424 281.801 361.632C281.956 361.43 282.114 361.23 282.276 361.033L282.25 361ZM261.638 371.849C269.719 371.849 276.905 368.015 281.475 362.066C278.434 366.206 276.638 371.318 276.638 376.849C276.638 382.38 278.434 387.492 281.475 391.632C276.905 385.684 269.719 381.849 261.638 381.849C253.557 381.849 246.371 385.684 241.801 391.632C244.842 387.492 246.638 382.38 246.638 376.849C246.638 371.318 244.842 366.206 241.801 362.066C246.371 368.015 253.556 371.849 261.638 371.849Z" fill="#F1EEEE"/>
</g>
<g id="connection50px_15">
<path id="connection50px_16" fill-rule="evenodd" clip-rule="evenodd" d="M359.276 392.665C359.114 392.468 358.956 392.268 358.801 392.066C358.954 392.274 359.104 392.485 359.25 392.698L359.276 392.665ZM318.025 392.698C318.172 392.485 318.322 392.274 318.475 392.066C318.32 392.268 318.161 392.468 318 392.665L318.025 392.698ZM318 361.033C318.161 361.23 318.32 361.43 318.475 361.633C317.826 360.748 317.233 359.82 316.703 358.852C317.108 359.592 317.55 360.308 318.025 361L318 361.033ZM359.25 361C359.104 361.213 358.954 361.424 358.801 361.632C358.956 361.43 359.114 361.23 359.276 361.033L359.25 361ZM338.638 371.849C346.719 371.849 353.905 368.015 358.475 362.066C355.434 366.206 353.638 371.318 353.638 376.849C353.638 382.38 355.434 387.492 358.475 391.632C353.905 385.684 346.719 381.849 338.638 381.849C330.556 381.849 323.371 385.684 318.801 391.632C321.842 387.492 323.638 382.38 323.638 376.849C323.638 371.318 321.842 366.206 318.801 362.066C323.371 368.015 330.556 371.849 338.638 371.849Z" fill="#F1EEEE"/>
</g>
</g>
<g id="horizontal1">
<g id="joinRect_5">
<rect width="10" height="250" transform="translate(180 459) rotate(-90)" fill="white"/>
<rect id="joinRect_6" x="180" y="459" width="10" height="250" transform="rotate(-90 180 459)" fill="#F2F1F1"/>
</g>
<g id="join_9">
<path id="Intersect_9" fill-rule="evenodd" clip-rule="evenodd" d="M319.479 467.85C324.065 462.437 330.912 459.001 338.562 459.001C338.608 459.001 338.654 459.001 338.7 459.001V449.001C338.654 449.001 338.608 449.001 338.562 449.001C330.771 449.001 323.812 445.437 319.227 439.85H319.2V439.887C321.952 443.904 323.562 448.764 323.562 454.001C323.562 459.123 322.022 463.885 319.379 467.85H319.479Z" fill="#F2F1F1"/>
</g>
<g id="join_10">
<path id="Intersect_10" fill-rule="evenodd" clip-rule="evenodd" d="M280.221 467.85C275.635 462.437 268.788 459.001 261.138 459.001C261.092 459.001 261.046 459.001 261 459.001V449.001C261.046 449.001 261.092 449.001 261.138 449.001C268.929 449.001 275.888 445.437 280.473 439.85H280.5V439.887C277.748 443.904 276.138 448.764 276.138 454.001C276.138 459.123 277.678 463.885 280.321 467.85H280.221Z" fill="#F2F1F1"/>
</g>
<g id="join_11">
<path id="Intersect_11" fill-rule="evenodd" clip-rule="evenodd" d="M165.579 467.85C170.165 462.437 177.012 459.001 184.662 459.001C184.708 459.001 184.754 459.001 184.8 459.001V449.001C184.754 449.001 184.708 449.001 184.662 449.001C176.871 449.001 169.912 445.437 165.327 439.85H165.3V439.887C168.052 443.904 169.662 448.764 169.662 454.001C169.662 459.123 168.122 463.885 165.479 467.85H165.579Z" fill="#F2F1F1"/>
</g>
<g id="join_12">
<path id="Intersect_12" fill-rule="evenodd" clip-rule="evenodd" d="M434.221 467.85C429.635 462.437 422.788 459.001 415.138 459.001C415.092 459.001 415.046 459.001 415 459.001V449.001C415.046 449.001 415.092 449.001 415.138 449.001C422.929 449.001 429.888 445.437 434.473 439.85H434.5V439.887C431.748 443.904 430.138 448.764 430.138 454.001C430.138 459.123 431.678 463.885 434.321 467.85H434.221Z" fill="#F2F1F1"/>
</g>
</g>
<g id="horizontal0">
<g id="joinRect_7">
<rect width="10" height="390" transform="translate(106 536.3) rotate(-90)" fill="white"/>
<rect id="joinRect_8" x="106" y="536.3" width="10" height="390" transform="rotate(-90 106 536.3)" fill="#F2F1F1"/>
</g>
<g id="join_13">
<path id="Intersect_13" fill-rule="evenodd" clip-rule="evenodd" d="M87.7288 517.45C92.3146 522.863 99.1621 526.299 106.812 526.299C106.858 526.299 106.904 526.299 106.95 526.299V536.299C106.904 536.299 106.858 536.299 106.812 536.299C99.0208 536.299 92.062 539.863 87.4771 545.45H87.45V545.413C90.2021 541.396 91.8121 536.536 91.8121 531.299C91.8121 526.177 90.2717 521.415 87.6288 517.45H87.7288Z" fill="#F2F1F1"/>
</g>
<g id="join_14">
<path id="Intersect_14" fill-rule="evenodd" clip-rule="evenodd" d="M280.721 517.45C276.135 522.863 269.288 526.299 261.638 526.299C261.592 526.299 261.546 526.299 261.5 526.299V536.299C261.546 536.299 261.592 536.299 261.638 536.299C269.429 536.299 276.388 539.863 280.973 545.45H281V545.413C278.248 541.396 276.638 536.536 276.638 531.299C276.638 526.177 278.178 521.415 280.821 517.45H280.721Z" fill="#F2F1F1"/>
</g>
<g id="join_15">
<path id="Intersect_15" fill-rule="evenodd" clip-rule="evenodd" d="M319.479 517.5C324.065 522.913 330.912 526.349 338.562 526.349C338.608 526.349 338.654 526.349 338.7 526.349V536.349C338.654 536.349 338.608 536.349 338.562 536.349C330.771 536.349 323.812 539.913 319.227 545.5H319.2V545.463C321.952 541.446 323.562 536.586 323.562 531.349C323.562 526.227 322.022 521.465 319.379 517.5H319.479Z" fill="#F2F1F1"/>
</g>
<g id="join_16">
<path id="Intersect_16" fill-rule="evenodd" clip-rule="evenodd" d="M511.871 517.5C507.285 522.913 500.438 526.349 492.788 526.349C492.742 526.349 492.696 526.349 492.65 526.349V536.349C492.696 536.349 492.742 536.349 492.788 536.349C500.579 536.349 507.538 539.913 512.123 545.5H512.15V545.463C509.398 541.446 507.788 536.586 507.788 531.349C507.788 526.227 509.328 521.465 511.971 517.5H511.871Z" fill="#F2F1F1"/>
</g>
</g>
</g>
<g id="verticals">
<g id="vertical6">
<g id="joinRect_9">
<rect width="10" height="385" transform="translate(536.6 492.3) rotate(-180)" fill="white"/>
<rect id="joinRect_10" x="536.6" y="492.3" width="10" height="385" transform="rotate(-180 536.6 492.3)" fill="#F2F1F1"/>
</g>
<g id="join_17">
<path id="Intersect_17" fill-rule="evenodd" clip-rule="evenodd" d="M517.75 319.579C523.163 324.165 526.599 331.012 526.599 338.662C526.599 338.708 526.599 338.754 526.599 338.8H536.599C536.599 338.754 536.599 338.708 536.599 338.662C536.599 330.871 540.163 323.912 545.75 319.327V319.3H545.713C541.696 322.052 536.836 323.662 531.599 323.662C526.477 323.662 521.715 322.122 517.75 319.479V319.579Z" fill="#F2F1F1"/>
</g>
<g id="join_18">
<path id="Intersect_18" fill-rule="evenodd" clip-rule="evenodd" d="M545.4 511.521C539.987 506.935 536.551 500.088 536.551 492.438C536.551 492.392 536.551 492.346 536.551 492.3H526.55C526.551 492.346 526.551 492.392 526.551 492.438C526.551 500.229 522.987 507.188 517.4 511.773V511.8H517.437C521.454 509.048 526.314 507.438 531.551 507.438C536.673 507.438 541.435 508.978 545.4 511.621V511.521Z" fill="#F2F1F1"/>
</g>
<g id="join_19">
<path id="Intersect_19" fill-rule="evenodd" clip-rule="evenodd" d="M517.75 280.321C523.163 275.735 526.599 268.888 526.599 261.238C526.599 261.192 526.599 261.146 526.599 261.1H536.599C536.599 261.146 536.599 261.192 536.599 261.238C536.599 269.029 540.163 275.988 545.75 280.573V280.6H545.713C541.696 277.848 536.836 276.238 531.599 276.238C526.477 276.238 521.715 277.778 517.75 280.421V280.321Z" fill="#F2F1F1"/>
</g>
<g id="join_20">
<path id="Intersect_20" fill-rule="evenodd" clip-rule="evenodd" d="M545.4 88.3787C539.987 92.9645 536.551 99.812 536.551 107.462C536.551 107.508 536.551 107.554 536.551 107.6H526.55C526.551 107.554 526.551 107.508 526.551 107.462C526.551 99.6708 522.987 92.712 517.4 88.1271V88.1H517.437C521.454 90.852 526.314 92.4621 531.551 92.4621C536.673 92.4621 541.435 90.9217 545.4 88.2788V88.3787Z" fill="#F2F1F1"/>
</g>
</g>
<g id="vertical5">
<g id="joinRect_11">
<rect width="10" height="250" transform="translate(449 180)" fill="white"/>
<rect id="joinRect_12" x="449" y="180" width="10" height="250" fill="#F2F1F1"/>
</g>
<g id="join_21">
<path id="Intersect_21" fill-rule="evenodd" clip-rule="evenodd" d="M440.15 319.599C445.563 324.185 448.999 331.032 448.999 338.682C448.999 338.728 448.999 338.774 448.999 338.82H458.999C458.999 338.774 458.999 338.728 458.999 338.682C458.999 330.891 462.563 323.932 468.15 319.347V319.32H468.113C464.096 322.072 459.236 323.682 453.999 323.682C448.877 323.682 444.115 322.142 440.15 319.499V319.599Z" fill="#F2F1F1"/>
</g>
<g id="join_22">
<path id="Intersect_22" fill-rule="evenodd" clip-rule="evenodd" d="M440.15 280.341C445.563 275.755 448.999 268.908 448.999 261.258C448.999 261.212 448.999 261.166 448.999 261.12H458.999C458.999 261.166 458.999 261.212 458.999 261.258C458.999 269.049 462.563 276.008 468.15 280.593V280.62H468.113C464.096 277.868 459.236 276.258 453.999 276.258C448.877 276.258 444.115 277.798 440.15 280.441V280.341Z" fill="#F2F1F1"/>
</g>
<g id="join_23">
<path id="Intersect_23" fill-rule="evenodd" clip-rule="evenodd" d="M467.85 434.371C462.437 429.785 459.001 422.938 459.001 415.288C459.001 415.242 459.001 415.196 459.001 415.15H449.001C449.001 415.196 449.001 415.242 449.001 415.288C449.001 423.079 445.437 430.038 439.85 434.623V434.65H439.887C443.904 431.898 448.764 430.288 454.001 430.288C459.123 430.288 463.885 431.828 467.85 434.471V434.371Z" fill="#F2F1F1"/>
</g>
<g id="join_24">
<path id="Intersect_24" fill-rule="evenodd" clip-rule="evenodd" d="M467.85 165.779C462.437 170.365 459.001 177.212 459.001 184.862C459.001 184.908 459.001 184.954 459.001 185H449.001C449.001 184.954 449.001 184.908 449.001 184.862C449.001 177.071 445.437 170.112 439.85 165.527V165.5H439.887C443.904 168.252 448.764 169.862 454.001 169.862C459.123 169.862 463.886 168.322 467.85 165.679V165.779Z" fill="#F2F1F1"/>
</g>
</g>
<g id="vertical4">
<g id="connection50px_17">
<path id="connection50px_18" fill-rule="evenodd" clip-rule="evenodd" d="M392.665 318C392.468 318.161 392.268 318.32 392.066 318.475C392.274 318.322 392.485 318.172 392.698 318.025L392.665 318ZM392.698 359.25C392.485 359.104 392.274 358.954 392.066 358.801C392.268 358.956 392.468 359.114 392.665 359.276L392.698 359.25ZM361.033 359.276C361.23 359.114 361.43 358.956 361.632 358.801C360.748 359.45 359.82 360.043 358.852 360.573C359.592 360.168 360.308 359.726 361 359.25L361.033 359.276ZM361 318.025C361.213 318.172 361.424 318.322 361.632 318.475C361.43 318.32 361.23 318.161 361.033 318L361 318.025ZM371.849 338.638C371.849 330.556 368.015 323.371 362.066 318.801C366.206 321.842 371.318 323.638 376.849 323.638C382.38 323.638 387.492 321.842 391.632 318.801C385.684 323.371 381.849 330.557 381.849 338.638C381.849 346.719 385.684 353.905 391.632 358.475C387.492 355.434 382.38 353.638 376.849 353.638C371.318 353.638 366.206 355.434 362.066 358.475C368.015 353.905 371.849 346.719 371.849 338.638Z" fill="#F1EEEE"/>
</g>
<g id="connection50px_19">
<path id="connection50px_20" fill-rule="evenodd" clip-rule="evenodd" d="M392.665 241C392.468 241.161 392.268 241.32 392.066 241.475C392.274 241.322 392.485 241.172 392.698 241.025L392.665 241ZM392.698 282.25C392.485 282.104 392.274 281.954 392.066 281.801C392.268 281.956 392.468 282.114 392.665 282.276L392.698 282.25ZM361.033 282.276C361.23 282.114 361.43 281.956 361.632 281.801C360.748 282.45 359.82 283.043 358.852 283.573C359.592 283.168 360.308 282.726 361 282.25L361.033 282.276ZM361 241.025C361.213 241.172 361.424 241.322 361.632 241.475C361.43 241.32 361.23 241.161 361.033 241L361 241.025ZM371.849 261.638C371.849 253.556 368.015 246.371 362.066 241.801C366.206 244.842 371.318 246.638 376.849 246.638C382.38 246.638 387.492 244.842 391.632 241.801C385.684 246.371 381.849 253.557 381.849 261.638C381.849 269.719 385.684 276.905 391.632 281.475C387.492 278.434 382.38 276.638 376.849 276.638C371.318 276.638 366.206 278.434 362.066 281.475C368.015 276.905 371.849 269.719 371.849 261.638Z" fill="#F1EEEE"/>
</g>
</g>
<g id="vertical31">
<g id="connection50px_21">
<path id="connection50px_22" fill-rule="evenodd" clip-rule="evenodd" d="M316.665 164C316.468 164.161 316.268 164.32 316.066 164.475C316.274 164.322 316.485 164.172 316.698 164.025L316.665 164ZM316.698 205.25C316.485 205.104 316.274 204.954 316.066 204.801C316.268 204.956 316.468 205.114 316.665 205.276L316.698 205.25ZM285.033 205.276C285.23 205.114 285.43 204.956 285.633 204.801C284.748 205.45 283.82 206.043 282.852 206.573C283.592 206.168 284.308 205.726 285 205.25L285.033 205.276ZM285 164.025C285.213 164.172 285.424 164.322 285.632 164.475C285.43 164.32 285.23 164.161 285.033 164L285 164.025ZM295.849 184.638C295.849 176.556 292.015 169.371 286.066 164.801C290.206 167.842 295.318 169.638 300.849 169.638C306.38 169.638 311.492 167.842 315.632 164.801C309.684 169.371 305.849 176.557 305.849 184.638C305.849 192.719 309.684 199.905 315.632 204.475C311.492 201.434 306.38 199.638 300.849 199.638C295.318 199.638 290.206 201.434 286.066 204.475C292.015 199.905 295.849 192.719 295.849 184.638Z" fill="#F1EEEE"/>
</g>
<g id="connection50px_23">
<path id="connection50px_24" fill-rule="evenodd" clip-rule="evenodd" d="M316.665 87C316.468 87.1613 316.268 87.3197 316.066 87.475C316.274 87.322 316.485 87.1721 316.698 87.0255L316.665 87ZM316.698 128.25C316.485 128.104 316.274 127.954 316.066 127.801C316.268 127.956 316.468 128.114 316.665 128.276L316.698 128.25ZM285.033 128.276C285.23 128.114 285.43 127.956 285.633 127.801C284.748 128.45 283.82 129.043 282.852 129.573C283.592 129.168 284.308 128.726 285 128.25L285.033 128.276ZM285 87.0255C285.213 87.1722 285.424 87.3221 285.632 87.4751C285.43 87.3197 285.23 87.1613 285.033 87L285 87.0255ZM295.849 107.638C295.849 99.5565 292.015 92.3707 286.066 87.8007C290.206 90.8416 295.318 92.6379 300.849 92.6379C306.38 92.6379 311.492 90.8417 315.632 87.8007C309.684 92.3708 305.849 99.5565 305.849 107.638C305.849 115.719 309.684 122.905 315.632 127.475C311.492 124.434 306.38 122.638 300.849 122.638C295.318 122.638 290.206 124.434 286.066 127.475C292.015 122.905 295.849 115.719 295.849 107.638Z" fill="#F1EEEE"/>
</g>
</g>
<g id="vertical30">
<g id="connection50px_25">
<path id="connection50px_26" fill-rule="evenodd" clip-rule="evenodd" d="M315.665 472.174C315.468 472.336 315.268 472.494 315.066 472.649C315.274 472.496 315.485 472.346 315.698 472.2L315.665 472.174ZM315.698 513.425C315.485 513.278 315.274 513.128 315.066 512.975C315.268 513.13 315.468 513.289 315.665 513.45L315.698 513.425ZM284.033 513.45C284.23 513.289 284.43 513.13 284.633 512.975C283.748 513.624 282.82 514.217 281.852 514.747C282.592 514.342 283.308 513.9 284 513.425L284.033 513.45ZM284 472.2C284.213 472.346 284.424 472.496 284.632 472.649C284.43 472.494 284.23 472.336 284.033 472.174L284 472.2ZM294.849 492.812C294.849 484.731 291.015 477.545 285.066 472.975C289.206 476.016 294.318 477.812 299.849 477.812C305.38 477.812 310.492 476.016 314.632 472.975C308.684 477.545 304.849 484.731 304.849 492.812C304.849 500.894 308.684 508.079 314.632 512.649C310.492 509.608 305.38 507.812 299.849 507.812C294.318 507.812 289.206 509.608 285.066 512.649C291.015 508.079 294.849 500.894 294.849 492.812Z" fill="#F1EEEE"/>
</g>
<g id="connection50px_27">
<path id="connection50px_28" fill-rule="evenodd" clip-rule="evenodd" d="M315.665 395C315.468 395.161 315.268 395.32 315.066 395.475C315.274 395.322 315.485 395.172 315.698 395.025L315.665 395ZM315.698 436.25C315.485 436.104 315.274 435.954 315.066 435.801C315.268 435.956 315.468 436.114 315.665 436.276L315.698 436.25ZM284.033 436.276C284.23 436.114 284.43 435.956 284.633 435.801C283.748 436.45 282.82 437.043 281.852 437.573C282.592 437.168 283.308 436.726 284 436.25L284.033 436.276ZM284 395.025C284.213 395.172 284.424 395.322 284.632 395.475C284.43 395.32 284.23 395.161 284.033 395L284 395.025ZM294.849 415.638C294.849 407.556 291.015 400.371 285.066 395.801C289.206 398.842 294.318 400.638 299.849 400.638C305.38 400.638 310.492 398.842 314.632 395.801C308.684 400.371 304.849 407.557 304.849 415.638C304.849 423.719 308.684 430.905 314.632 435.475C310.492 432.434 305.38 430.638 299.849 430.638C294.318 430.638 289.206 432.434 285.066 435.475C291.015 430.905 294.849 423.719 294.849 415.638Z" fill="#F1EEEE"/>
</g>
</g>
<g id="vertical2">
<g id="connection50px_29">
<path id="connection50px_30" fill-rule="evenodd" clip-rule="evenodd" d="M238.665 318C238.468 318.161 238.268 318.32 238.066 318.475C238.274 318.322 238.485 318.172 238.698 318.025L238.665 318ZM238.698 359.25C238.485 359.104 238.274 358.954 238.066 358.801C238.268 358.956 238.468 359.114 238.665 359.276L238.698 359.25ZM207.033 359.276C207.23 359.114 207.43 358.956 207.633 358.801C206.748 359.45 205.82 360.043 204.852 360.573C205.592 360.168 206.308 359.726 207 359.25L207.033 359.276ZM207 318.025C207.213 318.172 207.424 318.322 207.632 318.475C207.43 318.32 207.23 318.161 207.033 318L207 318.025ZM217.849 338.638C217.849 330.556 214.015 323.371 208.066 318.801C212.206 321.842 217.318 323.638 222.849 323.638C228.38 323.638 233.492 321.842 237.632 318.801C231.684 323.371 227.849 330.557 227.849 338.638C227.849 346.719 231.684 353.905 237.632 358.475C233.492 355.434 228.38 353.638 222.849 353.638C217.318 353.638 212.206 355.434 208.066 358.475C214.015 353.905 217.849 346.719 217.849 338.638Z" fill="#F1EEEE"/>
</g>
<g id="connection50px_31">
<path id="connection50px_32" fill-rule="evenodd" clip-rule="evenodd" d="M238.665 241C238.468 241.161 238.268 241.32 238.066 241.475C238.274 241.322 238.485 241.172 238.698 241.025L238.665 241ZM238.698 282.25C238.485 282.104 238.274 281.954 238.066 281.801C238.268 281.956 238.468 282.114 238.665 282.276L238.698 282.25ZM207.033 282.276C207.23 282.114 207.43 281.956 207.633 281.801C206.748 282.45 205.82 283.043 204.852 283.573C205.592 283.168 206.308 282.726 207 282.25L207.033 282.276ZM207 241.025C207.213 241.172 207.424 241.322 207.632 241.475C207.43 241.32 207.23 241.161 207.033 241L207 241.025ZM217.849 261.638C217.849 253.556 214.015 246.371 208.066 241.801C212.206 244.842 217.318 246.638 222.849 246.638C228.38 246.638 233.492 244.842 237.632 241.801C231.684 246.371 227.849 253.557 227.849 261.638C227.849 269.719 231.684 276.905 237.632 281.475C233.492 278.434 228.38 276.638 222.849 276.638C217.318 276.638 212.206 278.434 208.066 281.475C214.015 276.905 217.849 269.719 217.849 261.638Z" fill="#F1EEEE"/>
</g>
</g>
<g id="vertical1">
<g id="joinRect_13">
<rect width="10" height="250" transform="translate(141 180)" fill="white"/>
<rect id="joinRect_14" x="141" y="180" width="10" height="250" fill="#F2F1F1"/>
</g>
<g id="join_25">
<path id="Intersect_25" fill-rule="evenodd" clip-rule="evenodd" d="M131.95 320.079C137.363 324.665 140.799 331.512 140.799 339.162C140.799 339.208 140.799 339.254 140.799 339.3H150.799C150.799 339.254 150.799 339.208 150.799 339.162C150.799 331.371 154.363 324.412 159.95 319.827V319.8H159.913C155.896 322.552 151.036 324.162 145.799 324.162C140.677 324.162 135.915 322.622 131.95 319.979V320.079Z" fill="#F2F1F1"/>
</g>
<g id="join_26">
<path id="Intersect_26" fill-rule="evenodd" clip-rule="evenodd" d="M131.95 280.821C137.363 276.235 140.799 269.388 140.799 261.738C140.799 261.692 140.799 261.646 140.799 261.6H150.799C150.799 261.646 150.799 261.692 150.799 261.738C150.799 269.529 154.363 276.488 159.95 281.073V281.1H159.913C155.896 278.348 151.036 276.738 145.799 276.738C140.677 276.738 135.915 278.278 131.95 280.921V280.821Z" fill="#F2F1F1"/>
</g>
<g id="join_27">
<path id="Intersect_27" fill-rule="evenodd" clip-rule="evenodd" d="M132.1 434.221C137.513 429.635 140.949 422.788 140.949 415.138C140.949 415.092 140.949 415.046 140.949 415H150.949C150.949 415.046 150.949 415.092 150.949 415.138C150.949 422.929 154.513 429.888 160.1 434.473V434.5H160.063C156.046 431.748 151.186 430.138 145.949 430.138C140.827 430.138 136.065 431.678 132.1 434.321V434.221Z" fill="#F2F1F1"/>
</g>
<g id="join_28">
<path id="Intersect_28" fill-rule="evenodd" clip-rule="evenodd" d="M132.15 165.579C137.563 170.165 140.999 177.012 140.999 184.662C140.999 184.708 140.999 184.754 140.999 184.8H150.999C150.999 184.754 150.999 184.708 150.999 184.662C150.999 176.871 154.563 169.912 160.15 165.327V165.3H160.113C156.096 168.052 151.236 169.662 145.999 169.662C140.877 169.662 136.115 168.122 132.15 165.479V165.579Z" fill="#F2F1F1"/>
</g>
</g>
<g id="vertical0">
<g id="joinRect_15">
<rect width="10" height="390" transform="matrix(1 0 0 -1 63 493.7)" fill="white"/>
<rect id="joinRect_16" width="10" height="390" transform="matrix(1 0 0 -1 63 493.7)" fill="#F2F1F1"/>
</g>
<g id="join_29">
<path id="Intersect_29" fill-rule="evenodd" clip-rule="evenodd" d="M81.85 280.721C76.437 276.135 73.0009 269.288 73.0009 261.638C73.0009 261.592 73.001 261.546 73.0012 261.5H63.0005C63.0007 261.546 63.0009 261.592 63.0009 261.638C63.0009 269.429 59.4368 276.388 53.85 280.973V281H53.8872C57.9037 278.248 62.7643 276.638 68.0009 276.638C73.123 276.638 77.8854 278.178 81.85 280.821V280.721Z" fill="#F2F1F1"/>
</g>
<g id="join_30">
<path id="Intersect_30" fill-rule="evenodd" clip-rule="evenodd" d="M81.85 319.979C76.437 324.565 73.0009 331.412 73.0009 339.062C73.0009 339.108 73.001 339.154 73.0012 339.2H63.0005C63.0007 339.154 63.0009 339.108 63.0009 339.062C63.0009 331.271 59.4368 324.312 53.85 319.727V319.7H53.8872C57.9037 322.452 62.7643 324.062 68.0009 324.062C73.123 324.062 77.8854 322.522 81.85 319.879V319.979Z" fill="#F2F1F1"/>
</g>
<g id="join_31">
<path id="Intersect_31" fill-rule="evenodd" clip-rule="evenodd" d="M54.2 511.921C59.613 507.335 63.0491 500.488 63.0491 492.838C63.0491 492.792 63.049 492.746 63.0487 492.7H73.0495C73.0492 492.746 73.0491 492.792 73.0491 492.838C73.0491 500.629 76.6132 507.588 82.2 512.173V512.2H82.1628C78.1463 509.448 73.2857 507.838 68.0491 507.838C62.927 507.838 58.1646 509.378 54.2 512.021V511.921Z" fill="#F2F1F1"/>
</g>
<g id="join_32">
<path id="Intersect_32" fill-rule="evenodd" clip-rule="evenodd" d="M54.2 88.7787C59.613 93.3646 63.0491 100.212 63.0491 107.862C63.0491 107.908 63.049 107.954 63.0487 108H73.0495C73.0492 107.954 73.0491 107.908 73.0491 107.862C73.0491 100.071 76.6132 93.112 82.2 88.5271V88.5H82.1628C78.1463 91.2521 73.2857 92.8621 68.0491 92.8621C62.927 92.8621 58.1646 91.3217 54.2 88.6788V88.7787Z" fill="#F2F1F1"/>
</g>
</g>
</g>
</g>
<g id="pads">
<g id="pad66">
<circle r="24" transform="matrix(-1 0 0 1 531.6 69)" fill="white"/>
<circle r="23.5" transform="matrix(-1 0 0 1 531.6 69)" stroke="#808080" stroke-opacity="0.5"/>
</g>
<g id="pad63">
<circle cx="531.6" cy="300" r="24" transform="rotate(-180 531.6 300)" fill="white"/>
<circle cx="531.6" cy="300" r="23.5" transform="rotate(-180 531.6 300)" stroke="#808080" stroke-opacity="0.5"/>
</g>
<g id="pad60">
<circle cx="531.6" cy="531.3" r="24" transform="rotate(-180 531.6 531.3)" fill="white"/>
<circle cx="531.6" cy="531.3" r="23.5" transform="rotate(-180 531.6 531.3)" stroke="#808080" stroke-opacity="0.5"/>
</g>
<g id="pad55">
<circle cx="453.95" cy="146" r="24" transform="rotate(-90 453.95 146)" fill="white"/>
<circle cx="453.95" cy="146" r="23.5" transform="rotate(-90 453.95 146)" stroke="#808080" stroke-opacity="0.5"/>
</g>
<g id="pad53">
<circle cx="454" cy="300.02" r="24" transform="rotate(-180 454 300.02)" fill="white"/>
<circle cx="454" cy="300.02" r="23.5" transform="rotate(-180 454 300.02)" stroke="#808080" stroke-opacity="0.5"/>
</g>
<g id="pad51">
<circle cx="454" cy="453.95" r="24" fill="white"/>
<circle cx="454" cy="453.95" r="23.5" stroke="#808080" stroke-opacity="0.5"/>
</g>
<g id="pad44">
<circle cx="377" cy="223" r="24" fill="white"/>
<circle cx="377" cy="223" r="23.5" stroke="#808080" stroke-opacity="0.5"/>
</g>
<g id="pad43">
<circle cx="377" cy="300.276" r="24" transform="rotate(-90 377 300.276)" fill="white"/>
<circle cx="377" cy="300.276" r="23.5" transform="rotate(-90 377 300.276)" stroke="#808080" stroke-opacity="0.5"/>
</g>
<g id="pad42">
<circle cx="377" cy="377.276" r="24" transform="rotate(-90 377 377.276)" fill="white"/>
<circle cx="377" cy="377.276" r="23.5" transform="rotate(-90 377 377.276)" stroke="#808080" stroke-opacity="0.5"/>
</g>
<g id="pad36">
<circle cx="299.4" cy="69.05" r="24" fill="white"/>
<circle cx="299.4" cy="69.05" r="23.5" stroke="#808080" stroke-opacity="0.5"/>
</g>
<g id="pad35">
<circle cx="300.05" cy="145.95" r="24" transform="rotate(90 300.05 145.95)" fill="white"/>
<circle cx="300.05" cy="145.95" r="23.5" transform="rotate(90 300.05 145.95)" stroke="#808080" stroke-opacity="0.5"/>
</g>
<g id="pad34">
<circle cx="300" cy="223" r="24" fill="white"/>
<circle cx="300" cy="223" r="23.5" stroke="#808080" stroke-opacity="0.5"/>
</g>
<g id="pad32">
<circle cx="300" cy="377" r="24" fill="white"/>
<circle cx="300" cy="377" r="23.5" stroke="#808080" stroke-opacity="0.5"/>
</g>
<g id="pad31">
<circle cx="299.9" cy="454" r="24" transform="rotate(90 299.9 454)" fill="white"/>
<circle cx="299.9" cy="454" r="23.5" transform="rotate(90 299.9 454)" stroke="#808080" stroke-opacity="0.5"/>
</g>
<g id="pad30">
<circle cx="300" cy="531.6" r="24" fill="white"/>
<circle cx="300" cy="531.6" r="23.5" stroke="#808080" stroke-opacity="0.5"/>
</g>
<g id="pad24">
<circle cx="223" cy="223" r="24" fill="white"/>
<circle cx="223" cy="223" r="23.5" stroke="#808080" stroke-opacity="0.5"/>
</g>
<g id="pad23">
<circle cx="223" cy="300.276" r="24" transform="rotate(-90 223 300.276)" fill="white"/>
<circle cx="223" cy="300.276" r="23.5" transform="rotate(-90 223 300.276)" stroke="#808080" stroke-opacity="0.5"/>
</g>
<g id="pad22">
<circle cx="223" cy="377" r="24" fill="white"/>
<circle cx="223" cy="377" r="23.5" stroke="#808080" stroke-opacity="0.5"/>
</g>
<g id="pad15">
<circle cx="146" cy="146" r="24" transform="rotate(-180 146 146)" fill="white"/>
<circle cx="146" cy="146" r="23.5" transform="rotate(-180 146 146)" stroke="#808080" stroke-opacity="0.5"/>
</g>
<g id="pad13">
<circle cx="145.8" cy="300.5" r="24" transform="rotate(-180 145.8 300.5)" fill="white"/>
<circle cx="145.8" cy="300.5" r="23.5" transform="rotate(-180 145.8 300.5)" stroke="#808080" stroke-opacity="0.5"/>
</g>
<g id="pad11">
<circle cx="146" cy="454" r="24" transform="rotate(90 146 454)" fill="white"/>
<circle cx="146" cy="454" r="23.5" transform="rotate(90 146 454)" stroke="#808080" stroke-opacity="0.5"/>
</g>
<g id="pad06">
<circle cx="68.05" cy="69.05" r="24" fill="white"/>
<circle cx="68.05" cy="69.05" r="23.5" stroke="#808080" stroke-opacity="0.5"/>
</g>
<g id="pad03">
<circle cx="68.18" cy="300.4" r="24" fill="white"/>
<circle cx="68.18" cy="300.4" r="23.5" stroke="#808080" stroke-opacity="0.5"/>
</g>
<g id="pad00">
<circle r="24" transform="matrix(1 0 0 -1 68 531.7)" fill="white"/>
<circle r="23.5" transform="matrix(1 0 0 -1 68 531.7)" stroke="#808080" stroke-opacity="0.5"/>
</g>
</g>
<circle id="cow" r="23.5" transform="matrix(1 0 0 -1 300 300)" fill="#62D2E1" stroke="#777777"/>
</g>
</svg>
